<svg xmlns="http://www.w3.org/2000/svg" viewBox="0 0 100 125" x="0px" y="0px"><g fill="#000000"><path d="M80.5 62.1c0-.4.1-.7.1-1.1 0-2.8-.9-5.3-2.5-7.4 3.5-3.4 5.6-8.1 5.6-13.1 0-10-8.1-18.2-18.2-18.2-7.4 0-14 4.5-16.8 11.2-1.7-.5-3.6-.7-5.5-.7-12.5 0-21.7 10.2-21.7 22.7v.1h-.1C12.3 55.7 5 63.1 5 72.3S12.5 89 21.7 89h57.5c7.4 0 13.5-6.1 13.5-13.5 0-7-5.4-12.8-12.2-13.4zm-15-35.7c7.8 0 14.2 6.4 14.2 14.2 0 3.9-1.6 7.7-4.5 10.3-2-1.3-4.3-2.1-6.9-2.1-1.5 0-2.9.2-4.2.7-1.8-6.5-6-11.7-11.6-14.5 2.1-5.2 7.2-8.6 13-8.6zM79.2 85H21.7C14.7 85 9 79.3 9 72.3c0-7 5.6-12.6 12.5-12.6h.2c.5 0 1.1.1 1.7.2.6.1 1.2-.1 1.6-.5.4-.4.7-.9.7-1.5 0-.4 0-.8-.1-1.3v-1c0-10.3 7.4-18.7 17.7-18.7 9.1 0 16.1 6.8 17.5 15.8.1.7.5 1.2 1.2 1.5.6.3 1.3.2 1.9-.1 1.3-.9 2.8-1.3 4.5-1.3 4.6 0 8.3 3.6 8.3 8.3 0 .8-.1 1.6-.4 2.6-.2.7 0 1.4.5 1.9s1.2.7 1.9.5h.7c5.2 0 9.5 4.3 9.5 9.5-.2 5.2-4.5 9.4-9.7 9.4zM59.7 17.7c.2 1 1 1.7 2 1.7h.3c1.1-.2 1.8-1.2 1.7-2.3l-.7-4.4c-.2-1.1-1.2-1.8-2.3-1.7-1.1.2-1.8 1.2-1.7 2.3l.7 4.4zM78 23.1c.4.3.8.4 1.2.4.6 0 1.2-.3 1.6-.8l2.6-3.6c.6-.9.4-2.1-.5-2.8-.9-.6-2.1-.4-2.8.5l-2.6 3.6c-.6.8-.4 2 .5 2.7zM95 35.7c-.2-1.1-1.2-1.8-2.3-1.7l-4.4.7c-1.1.2-1.8 1.2-1.7 2.3.2 1 1 1.7 2 1.7h.3l4.4-.7c1.2-.2 1.9-1.2 1.7-2.3zM82.9 53.1c-.6.9-.4 2.1.5 2.8l3.6 2.6c.4.3.8.4 1.2.4.6 0 1.2-.3 1.6-.8.6-.9.4-2.1-.5-2.8l-3.6-2.6c-.9-.7-2.1-.5-2.8.4zM41.6 25.9l3.6 2.6c.4.3.8.4 1.2.4.6 0 1.2-.3 1.6-.8.6-.9.4-2.1-.5-2.8l-3.6-2.6c-.9-.6-2.1-.4-2.8.5-.6.8-.4 2 .5 2.7z"/></g><text x="0" y="115" fill="#000000" font-size="5px" font-weight="bold" font-family="'Helvetica Neue', Helvetica, Arial-Unicode, Arial, Sans-serif">Created by Calvin Goodman</text><text x="0" y="120" fill="#000000" font-size="5px" font-weight="bold" font-family="'Helvetica Neue', Helvetica, Arial-Unicode, Arial, Sans-serif">from the Noun Project</text></svg>