<svg xmlns="http://www.w3.org/2000/svg" xmlns:xlink="http://www.w3.org/1999/xlink" version="1.1" x="0px" y="0px" viewBox="0 0 80 100" enable-background="new 0 0 80 80" xml:space="preserve"><g><path fill="#000000" d="M56.5,55h-29c-5.639,0-10.227-4.588-10.227-10.227c0-5.237,3.904-9.551,9.023-10.146   c0.891-3.427,4.251-5.834,7.953-5.275C37.202,25.943,41.434,24,45.955,24c7.105,0,13.195,4.726,14.981,11.555   c3.535,1.7,5.792,5.264,5.792,9.218C66.727,50.412,62.139,55,56.5,55z M33.212,31.273c-2.55,0-4.74,1.905-5.094,4.431l-0.116,0.827   l-0.834,0.033c-4.427,0.177-7.895,3.783-7.895,8.209c0,4.537,3.69,8.227,8.227,8.227h29c4.537,0,8.227-3.69,8.227-8.227   c0-3.319-1.977-6.296-5.035-7.585l-0.473-0.199l-0.114-0.5C57.696,30.313,52.289,26,45.955,26c-4.113,0-7.953,1.848-10.535,5.071   l-0.396,0.494l-0.616-0.146C34.001,31.322,33.598,31.273,33.212,31.273z"/></g><text x="0" y="95" fill="#000000" font-size="5px" font-weight="bold" font-family="'Helvetica Neue', Helvetica, Arial-Unicode, Arial, Sans-serif">Created by Golden Roof</text><text x="0" y="100" fill="#000000" font-size="5px" font-weight="bold" font-family="'Helvetica Neue', Helvetica, Arial-Unicode, Arial, Sans-serif">from the Noun Project</text></svg>