<svg xmlns="http://www.w3.org/2000/svg" xmlns:xlink="http://www.w3.org/1999/xlink" version="1.1" x="0px" y="0px" viewBox="0 0 50 62.5" enable-background="new 0 0 50 50" xml:space="preserve"><g><path d="M19.879,34.886H8.497c-2.873,0-5.393-2.884-5.393-6.17v-0.279c0-3.241,2.47-5.978,5.393-5.978h3.138   c0.286,0,0.536-0.195,0.604-0.473c0.568-2.32,2.768-4.069,5.119-4.069c0.581,0,1.118,0.078,1.601,0.232   c0.204,0.064,0.426,0.02,0.59-0.117c1.746-1.476,3.995-2.289,6.333-2.289c2.535,0,5.015,0.939,6.803,2.575   c0.254,0.233,0.646,0.215,0.879-0.038c0.231-0.252,0.213-0.646-0.039-0.878c-2.015-1.844-4.799-2.902-7.643-2.902   c-2.517,0-4.946,0.84-6.876,2.37c-0.514-0.13-1.065-0.195-1.647-0.195c-2.791,0-5.319,1.882-6.189,4.542h-2.67   c-3.597,0-6.635,3.306-6.635,7.219v0.279c0,3.948,3.101,7.412,6.635,7.412h11.382c0.343,0,0.621-0.277,0.621-0.621   S20.222,34.886,19.879,34.886z"/><path d="M37.443,21.695c-1.669,0-3.273,0.558-4.538,1.574c-0.398-0.101-0.799-0.115-1.113-0.115c-1.941,0-3.534,1.208-4.039,3.034   h-1.837c-2.264,0-4.795,1.98-4.795,4.63v0.188c0,2.538,2.42,5.123,4.795,5.123h11.527c1.853,0,3.759-0.882,5.229-2.417   c0.051-0.053,0.08-0.119,0.085-0.192c1.188-1.276,1.868-3.009,1.868-4.775C44.625,24.857,41.404,21.695,37.443,21.695z    M42.229,33.174c-0.05,0.052-0.079,0.119-0.086,0.19c-1.342,1.363-3.048,2.143-4.698,2.143H25.916   c-2.028,0-4.173-2.314-4.173-4.502v-0.188c0-2.258,2.244-4.009,4.173-4.009h2.08c0.146,0,0.273-0.102,0.304-0.245   c0.362-1.669,1.766-2.789,3.494-2.789c0.472,0,0.798,0.04,1.09,0.134c0.101,0.031,0.212,0.01,0.295-0.06   c1.171-0.987,2.687-1.532,4.267-1.532c3.617,0,6.561,2.884,6.561,6.427C44.004,30.391,43.356,32.006,42.229,33.174z"/></g><text x="0" y="65" fill="#000000" font-size="5px" font-weight="bold" font-family="'Helvetica Neue', Helvetica, Arial-Unicode, Arial, Sans-serif">Created by Luboš Volkov</text><text x="0" y="70" fill="#000000" font-size="5px" font-weight="bold" font-family="'Helvetica Neue', Helvetica, Arial-Unicode, Arial, Sans-serif">from the Noun Project</text></svg>