<svg xmlns="http://www.w3.org/2000/svg" xmlns:xlink="http://www.w3.org/1999/xlink" version="1.1" x="0px" y="0px" viewBox="0 0 48 60" enable-background="new 0 0 48 48" xml:space="preserve"><g><path d="M35.969,37.193H12.031C5.397,37.193,0,31.283,0,24.018c0-6.21,3.875-11.468,9.327-12.829C9.636,4.962,14.363,0,20.13,0   c5.966,0,10.819,5.311,10.819,11.839c0,0.067-0.001,0.134-0.002,0.201c1.566-0.79,3.271-1.201,5.021-1.201   C42.603,10.839,48,16.751,48,24.018C48,31.283,42.603,37.193,35.969,37.193z M20.13,2c-4.863,0-8.819,4.414-8.819,9.839   l0.008,0.145c0.009,0.493-0.344,0.919-0.83,1.003C5.57,13.836,2,18.476,2,24.018c0,6.162,4.5,11.175,10.031,11.175h23.938   C41.5,35.193,46,30.18,46,24.018c0-6.164-4.5-11.179-10.031-11.179c-2.006,0-3.945,0.662-5.607,1.914   c-0.329,0.248-0.773,0.268-1.126,0.053c-0.35-0.215-0.532-0.624-0.46-1.029c0.115-0.641,0.174-1.292,0.174-1.938   C28.949,6.414,24.993,2,20.13,2z"/><path d="M9.682,48c-0.157,0-0.317-0.037-0.466-0.116c-0.488-0.258-0.675-0.862-0.417-1.351l4.187-7.924   c0.258-0.489,0.863-0.676,1.352-0.417c0.488,0.258,0.675,0.862,0.417,1.351l-4.187,7.924C10.388,47.807,10.041,48,9.682,48z"/><path d="M16.419,48c-0.157,0-0.317-0.037-0.466-0.116c-0.488-0.258-0.675-0.862-0.417-1.351l4.187-7.924   c0.258-0.489,0.863-0.676,1.352-0.417c0.488,0.258,0.675,0.862,0.417,1.351l-4.187,7.924C17.125,47.807,16.778,48,16.419,48z"/><path d="M23.158,48c-0.157,0-0.317-0.037-0.466-0.116c-0.488-0.258-0.675-0.862-0.417-1.351l4.187-7.924   c0.257-0.489,0.863-0.676,1.351-0.417c0.488,0.258,0.676,0.862,0.417,1.351l-4.186,7.924C23.864,47.807,23.517,48,23.158,48z"/><path d="M29.896,48c-0.157,0-0.317-0.037-0.466-0.116c-0.488-0.258-0.676-0.862-0.417-1.351l4.188-7.924   c0.257-0.489,0.863-0.676,1.351-0.417c0.488,0.258,0.676,0.862,0.417,1.351l-4.188,7.924C30.602,47.807,30.255,48,29.896,48z"/></g><text x="0" y="63" fill="#000000" font-size="5px" font-weight="bold" font-family="'Helvetica Neue', Helvetica, Arial-Unicode, Arial, Sans-serif">Created by Creative Stall</text><text x="0" y="68" fill="#000000" font-size="5px" font-weight="bold" font-family="'Helvetica Neue', Helvetica, Arial-Unicode, Arial, Sans-serif">from the Noun Project</text></svg>