<svg xmlns="http://www.w3.org/2000/svg" xmlns:xlink="http://www.w3.org/1999/xlink" version="1.1" x="0px" y="0px" viewBox="0 0 100 125" enable-background="new 0 0 100 100" xml:space="preserve"><g><path d="M58.018,21.353c1.104,0,2-0.896,2-2v-7.84c0-1.104-0.896-2-2-2s-2,0.896-2,2v7.84   C56.018,20.457,56.913,21.353,58.018,21.353z"/><path d="M36.758,28.989c0.391,0.391,0.902,0.586,1.415,0.586c0.512,0,1.023-0.195,1.414-0.585c0.781-0.781,0.781-2.047,0-2.829   l-5.543-5.545c-0.781-0.781-2.047-0.781-2.829,0c-0.781,0.781-0.781,2.047,0,2.829L36.758,28.989z"/><path d="M79.282,65.856c-0.781-0.781-2.048-0.78-2.829-0.001c-0.781,0.781-0.781,2.048-0.001,2.829l5.545,5.548   c0.391,0.391,0.903,0.586,1.415,0.586s1.023-0.195,1.414-0.585c0.781-0.781,0.781-2.048,0.001-2.829L79.282,65.856z"/><path d="M93.932,45.422H86.09c-1.104,0-2,0.896-2,2s0.896,2,2,2h7.842c1.104,0,2-0.896,2-2S95.036,45.422,93.932,45.422z"/><path d="M77.867,29.575c0.512,0,1.023-0.195,1.414-0.586l5.545-5.545c0.781-0.781,0.781-2.047,0-2.828   c-0.781-0.781-2.047-0.781-2.828,0l-5.545,5.545c-0.781,0.781-0.781,2.047,0,2.828C76.844,29.38,77.355,29.575,77.867,29.575z"/><path d="M80.379,47.422c0-12.327-10.03-22.356-22.359-22.356c-9.828,0-18.382,6.425-21.285,15.602   c-1.886-0.65-3.884-1.004-5.922-1.004c-3.213,0-6.389,0.857-9.186,2.479c-1.875,1.085-3.522,2.476-4.909,4.14   c-2.074,0.126-4.107,0.739-5.922,1.792c-4.149,2.404-6.727,6.866-6.727,11.645c0,4.777,2.578,9.237,6.726,11.639   c0.787,0.456,1.638,0.833,2.541,1.125c0.921,2.872,2.549,5.484,4.753,7.609c0.795,0.767,2.061,0.743,2.828-0.051   c0.767-0.796,0.744-2.062-0.052-2.828c-1.952-1.883-3.326-4.248-3.974-6.84c-0.182-0.728-0.755-1.292-1.485-1.463   c-0.954-0.224-1.83-0.564-2.606-1.014c-2.918-1.689-4.731-4.823-4.731-8.178c0-3.356,1.813-6.492,4.731-8.184   c1.442-0.836,3.077-1.277,4.653-1.279c0.043,0.004,0.169,0.011,0.212,0.011c0.66,0.027,1.251-0.289,1.636-0.803   c1.181-1.582,2.638-2.88,4.332-3.861c2.188-1.269,4.671-1.939,7.18-1.939c1.962,0,3.851,0.393,5.583,1.124   c0.187,0.265,0.439,0.486,0.745,0.638c2.518,1.247,4.595,3.156,6.006,5.523c0.548,0.92,1.722,1.245,2.665,0.737   c1.936-1.04,4.358-1.006,6.29,0.111c1.966,1.14,3.194,3.23,3.244,5.48c-0.02,1.132-0.329,2.242-0.911,3.217   c-0.226,0.377-0.306,0.806-0.265,1.224c-0.013,0.461,0.115,0.923,0.416,1.3c1.104,1.386,1.784,3.092,1.967,4.936   c0.013,0.13,0.038,0.256,0.074,0.377c0.004,0.099,0.013,0.197,0.013,0.297c0,3.356-1.813,6.491-4.732,8.182   c-1.442,0.836-3.076,1.277-4.726,1.277c-0.397,0-0.803-0.029-1.24-0.09c-1.089-0.148-2.103,0.614-2.254,1.708   s0.613,2.104,1.708,2.255c0.62,0.085,1.204,0.127,1.787,0.127c2.353,0,4.681-0.628,6.73-1.816   c3.864-2.237,6.363-6.261,6.688-10.663C71.84,68.337,80.379,58.957,80.379,47.422z M60.299,65.619   c-0.338-1.479-0.928-2.887-1.755-4.183c0.529-1.271,0.812-2.636,0.812-4.02c0-0.042-0.008-0.084-0.009-0.126   c0.001-0.042,0.007-0.084,0.007-0.126c0-3.723-2.01-7.202-5.247-9.081c-2.559-1.479-5.707-1.802-8.493-0.898   c-1.426-1.941-3.215-3.56-5.232-4.797c2.218-7.81,9.385-13.324,17.638-13.324c10.123,0,18.359,8.235,18.359,18.356   C76.379,56.838,69.449,64.509,60.299,65.619z"/><path d="M30.866,72.086c-1.446,1.61-6.162,7.146-6.162,10.752c0,4.218,3.432,7.649,7.65,7.649s7.65-3.432,7.65-7.649   c0-3.605-4.716-9.142-6.162-10.752C33.085,71.24,31.624,71.24,30.866,72.086z M32.354,86.487c-2.013,0-3.65-1.637-3.65-3.649   c0-1.123,1.7-3.849,3.65-6.311c1.95,2.46,3.649,5.185,3.649,6.311C36.004,84.851,34.367,86.487,32.354,86.487z"/></g><text x="0" y="115" fill="#000000" font-size="5px" font-weight="bold" font-family="'Helvetica Neue', Helvetica, Arial-Unicode, Arial, Sans-serif">Created by Ema Dimitrova</text><text x="0" y="120" fill="#000000" font-size="5px" font-weight="bold" font-family="'Helvetica Neue', Helvetica, Arial-Unicode, Arial, Sans-serif">from the Noun Project</text></svg>