<svg xmlns:dc="http://purl.org/dc/elements/1.1/" xmlns:cc="http://creativecommons.org/ns#" xmlns:rdf="http://www.w3.org/1999/02/22-rdf-syntax-ns#" xmlns:svg="http://www.w3.org/2000/svg" xmlns="http://www.w3.org/2000/svg" xmlns:sodipodi="http://sodipodi.sourceforge.net/DTD/sodipodi-0.dtd" xmlns:inkscape="http://www.inkscape.org/namespaces/inkscape" viewBox="0 0 48 60.00000125" version="1.1" x="0px" y="0px"><g transform="translate(0,-1004.3622)"><path style="color:#000000;font-style:normal;font-variant:normal;font-weight:normal;font-stretch:normal;font-size:medium;line-height:normal;font-family:sans-serif;text-indent:0;text-align:start;text-decoration:none;text-decoration-line:none;text-decoration-style:solid;text-decoration-color:#000000;letter-spacing:normal;word-spacing:normal;text-transform:none;direction:ltr;block-progression:tb;writing-mode:lr-tb;baseline-shift:baseline;text-anchor:start;white-space:normal;clip-rule:nonzero;display:inline;overflow:visible;visibility:visible;opacity:1;isolation:auto;mix-blend-mode:normal;color-interpolation:sRGB;color-interpolation-filters:linearRGB;solid-color:#000000;solid-opacity:1;fill:#000000;fill-opacity:1;fill-rule:evenodd;stroke:none;stroke-width:2;stroke-linecap:round;stroke-linejoin:round;stroke-miterlimit:4;stroke-dasharray:none;stroke-dashoffset:0;stroke-opacity:1;color-rendering:auto;image-rendering:auto;shape-rendering:auto;text-rendering:auto;enable-background:accumulate" d="m 24.951172,1035.3633 a 1.0001,1.0001 0 0 0 -0.798828,0.4805 l -5,7.9863 a 1.0001,1.0001 0 0 0 1.121094,1.4922 l 4.498046,-1.2832 -3.61914,5.7812 a 1.0001,1.0001 0 1 0 1.695312,1.0606 l 5,-7.9864 a 1.0001,1.0001 0 0 0 -1.121094,-1.4922 l -4.498046,1.2832 3.61914,-5.7812 a 1.0001,1.0001 0 0 0 -0.896484,-1.541 z"/><path style="color:#000000;font-style:normal;font-variant:normal;font-weight:normal;font-stretch:normal;font-size:medium;line-height:normal;font-family:sans-serif;text-indent:0;text-align:start;text-decoration:none;text-decoration-line:none;text-decoration-style:solid;text-decoration-color:#000000;letter-spacing:normal;word-spacing:normal;text-transform:none;direction:ltr;block-progression:tb;writing-mode:lr-tb;baseline-shift:baseline;text-anchor:start;white-space:normal;clip-rule:nonzero;display:inline;overflow:visible;visibility:visible;opacity:1;isolation:auto;mix-blend-mode:normal;color-interpolation:sRGB;color-interpolation-filters:linearRGB;solid-color:#000000;solid-opacity:1;fill:#000000;fill-opacity:1;fill-rule:nonzero;stroke:none;stroke-width:2;stroke-linecap:round;stroke-linejoin:round;stroke-miterlimit:4;stroke-dasharray:none;stroke-dashoffset:0;stroke-opacity:1;color-rendering:auto;image-rendering:auto;shape-rendering:auto;text-rendering:auto;enable-background:accumulate" d="m 30.778163,1005.3622 c -0.104921,0 -0.670939,3e-4 -0.777344,0 -4.696358,-0.012 -8.662805,2.7812 -11.210938,6.9681 -3.647254,-1.223 -7.773368,-0.8848 -10.6269525,1.9199 -2.9898846,2.9393 -3.9627107,7.3773 -2.4765625,11.2991 1.4861084,3.9218 5.156255,6.5985 9.341797,6.8126 0.01692,4e-4 0.03386,4e-4 0.05078,0 l 15.171875,0 c 6.927672,0 11.612071,-5.9927 12.587891,-11.436 0.984178,-6.4357 -2.61949,-12.7048 -8.605469,-14.8831 l -0.002,0 c -1.175118,-0.3593 -2.407894,-0.6306 -3.453077,-0.6806 z m -0.07422,2.002 c 1.017715,0.093 2.03255,0.2633 2.843784,0.5528 5.068577,1.8445 8.15913,7.1779 7.314453,12.7014 -0.840599,5.4964 -5.315949,9.5532 -10.648437,9.7307 -5.021011,0.021 -10.064789,0.01 -15.09375,0.01 -3.392789,-0.1776 -6.3567339,-2.3396 -7.5625003,-5.5217 -1.2069464,-3.1849 -0.4199843,-6.7755 2.0078125,-9.1622 2.3747258,-2.3341 5.9028648,-2.4386 9.1972658,-1.2989 0.689186,0.2384 1.151485,-0.1622 1.421915,-0.6046 2.362847,-3.8657 6.388515,-6.5643 10.519531,-6.4122 z"/></g><text x="0" y="63.000001" fill="#000000" font-size="5px" font-weight="bold" font-family="'Helvetica Neue', Helvetica, Arial-Unicode, Arial, Sans-serif">Created by anbileru adaleru</text><text x="0" y="68.000001" fill="#000000" font-size="5px" font-weight="bold" font-family="'Helvetica Neue', Helvetica, Arial-Unicode, Arial, Sans-serif">from the Noun Project</text></svg>