<svg xmlns="http://www.w3.org/2000/svg" xmlns:xlink="http://www.w3.org/1999/xlink" version="1.1" x="0px" y="0px" viewBox="0 0 32 40" enable-background="new 0 0 32 32" xml:space="preserve"><g><g><g><path d="M16,9c0.5522766,0,1,0.4477234,1,1s-0.4477234,1-1,1s-1-0.4477234-1-1S15.4477234,9,16,9 M16,8     c-1.1027985,0-2,0.8972015-2,2s0.8972015,2,2,2s2-0.8972015,2-2S17.1027985,8,16,8L16,8z"/></g><path d="M17,14v8h-2v-8H17 M17,13h-2c-0.5522766,0-1,0.3730927-1,0.8333435v8.333313C14,22.6269073,14.4477234,23,15,23h2    c0.5522766,0,1-0.3730927,1-0.8333435v-8.333313C18,13.3730927,17.5522766,13,17,13L17,13z"/></g><path d="M16,3c7.1682205,0,13,5.8317795,13,13s-5.8317795,13-13,13S3,23.1682205,3,16S8.8317795,3,16,3 M16,2   C8.268013,2,2,8.268013,2,16s6.268013,14,14,14s14-6.268013,14-14S23.731987,2,16,2L16,2z"/></g><text x="0" y="47" fill="#000000" font-size="5px" font-weight="bold" font-family="'Helvetica Neue', Helvetica, Arial-Unicode, Arial, Sans-serif">Created by Musket</text><text x="0" y="52" fill="#000000" font-size="5px" font-weight="bold" font-family="'Helvetica Neue', Helvetica, Arial-Unicode, Arial, Sans-serif">from the Noun Project</text></svg>