<svg xmlns:dc="http://purl.org/dc/elements/1.1/" xmlns:cc="http://creativecommons.org/ns#" xmlns:rdf="http://www.w3.org/1999/02/22-rdf-syntax-ns#" xmlns:svg="http://www.w3.org/2000/svg" xmlns="http://www.w3.org/2000/svg" version="1.1" viewBox="0 0 100 125" xml:space="preserve" x="0px" y="0px"><path d="m 49.90625,5 c -1.148467,0.033549 -2.25515,0.6614057 -3.375,1.78125 l -21.0625,21.0625 c -1.930065,1.930076 -1.930175,5.038651 0,6.96875 1.930066,1.930077 5.038684,1.930077 6.96875,0 l 12.625,-12.65625 0,27.46875 c 0,2.729552 2.207983,4.9375 4.9375,4.9375 2.729517,0 4.9375,-2.207948 4.9375,-4.9375 l 0,-27.46875 12.625,12.65625 c 1.930066,1.930088 5.038717,1.930088 6.96875,0 1.930066,-1.930077 1.930066,-5.038663 0,-6.96875 L 53.46875,6.78125 C 52.214721,5.5272109 51.054717,4.9664513 49.90625,5 z m 0.0625,53.1875 a 4.926934,4.926934 0 0 0 0.21875,9.84375 4.926934,4.926934 0 1 0 0,-9.84375 4.926934,4.926934 0 0 0 -0.21875,0 z m 0.21875,13.46875 a 4.9375,4.9375 0 1 0 0,9.875 4.9375,4.9375 0 1 0 0,-9.875 z m -0.21875,13.5 A 4.926934,4.926934 0 0 0 50.1875,95 a 4.926934,4.926934 0 1 0 0,-9.84375 4.926934,4.926934 0 0 0 -0.21875,0 z" style="" fill="#000000" fill-opacity="1" fill-rule="evenodd" stroke="none"/><text x="0" y="115" fill="#000000" font-size="5px" font-weight="bold" font-family="'Helvetica Neue', Helvetica, Arial-Unicode, Arial, Sans-serif">Created by ImageCatalog</text><text x="0" y="120" fill="#000000" font-size="5px" font-weight="bold" font-family="'Helvetica Neue', Helvetica, Arial-Unicode, Arial, Sans-serif">from the Noun Project</text></svg>